<?xml version="1.0" standalone="no"?>
<!DOCTYPE svg PUBLIC "-//W3C//DTD SVG 20010904//EN"
 "http://www.w3.org/TR/2001/REC-SVG-20010904/DTD/svg10.dtd">
<svg version="1.0" xmlns="http://www.w3.org/2000/svg"
 width="2000.000000pt" height="2000.000000pt" viewBox="0 0 2000.000000 2000.000000"
 preserveAspectRatio="xMidYMid meet">
<metadata>
Created by potrace 1.14, written by Peter Selinger 2001-2017
</metadata>
<g transform="translate(0.000000,2000.000000) scale(0.100000,-0.100000)"
fill="#000000" stroke="none">
<path d="M9825 19943 c-204 -42 -374 -187 -445 -378 -23 -63 -25 -72 -37 -145
-15 -86 -7 -434 12 -560 4 -26 11 -82 20 -160 3 -25 10 -70 15 -100 5 -30 11
-77 15 -105 3 -27 7 -61 10 -75 3 -14 7 -38 9 -55 5 -32 34 -212 41 -255 2
-14 7 -47 11 -75 3 -27 8 -59 10 -70 13 -70 35 -270 38 -337 6 -152 -24 -238
-156 -456 l-83 -136 -2 -159 c-1 -88 -3 -161 -5 -162 -2 -2 -37 -6 -78 -10
-41 -3 -82 -8 -90 -10 -8 -2 -35 -7 -60 -10 -42 -6 -113 -16 -200 -30 -29 -5
-171 -31 -322 -61 -15 -3 -99 -23 -185 -45 -87 -22 -165 -42 -173 -44 -158
-38 -569 -181 -810 -282 -153 -64 -514 -238 -640 -309 -281 -157 -655 -401
-830 -541 -8 -6 -50 -39 -93 -72 l-77 -61 -103 101 c-56 55 -114 107 -128 114
-14 8 -84 28 -155 45 -268 63 -353 112 -497 285 -83 99 -76 91 -189 242 -57
76 -105 140 -108 143 -3 3 -30 39 -60 80 -30 41 -60 82 -67 90 -6 8 -35 47
-64 85 -281 374 -488 610 -615 701 -220 157 -472 158 -701 1 -193 -131 -307
-333 -306 -542 0 -214 98 -384 348 -605 33 -29 74 -65 90 -79 87 -77 296 -235
695 -526 391 -285 463 -352 525 -481 21 -43 53 -142 75 -227 21 -84 42 -162
46 -174 5 -12 57 -71 117 -131 l107 -110 -23 -29 c-48 -57 -215 -281 -282
-378 -370 -531 -673 -1138 -868 -1740 -73 -225 -83 -260 -130 -450 -38 -150
-58 -241 -92 -405 -1 -8 -10 -60 -19 -115 -10 -55 -19 -111 -22 -125 -2 -14
-7 -52 -10 -85 -3 -33 -8 -62 -9 -66 -2 -3 -7 -39 -11 -80 -3 -40 -8 -77 -10
-80 -2 -4 -62 -7 -132 -7 -148 0 -156 -3 -295 -90 -112 -71 -209 -117 -287
-138 -48 -13 -192 -18 -255 -10 -11 2 -56 7 -100 11 -44 5 -82 9 -85 10 -3 1
-30 5 -60 9 -30 4 -66 9 -80 11 -70 11 -319 47 -349 51 -19 2 -46 6 -60 9 -32
5 -155 23 -219 31 -26 3 -58 7 -72 9 -14 2 -54 6 -90 10 -36 4 -76 8 -90 11
-148 24 -489 24 -585 -1 -224 -56 -392 -234 -439 -465 -15 -74 -15 -234 -1
-310 10 -52 52 -157 75 -190 11 -15 20 -32 20 -37 0 -14 111 -123 154 -150
168 -107 309 -130 651 -109 66 4 133 9 150 11 56 7 130 17 155 20 14 2 46 6
72 9 81 10 118 15 311 46 182 29 317 50 362 55 28 4 57 8 65 10 8 2 42 7 75
11 33 3 69 8 80 10 11 2 67 7 125 10 166 10 263 -19 455 -136 174 -106 161
-102 311 -104 73 0 135 -3 137 -6 3 -3 8 -34 11 -70 4 -36 9 -76 11 -90 2 -14
7 -45 10 -70 22 -165 87 -513 122 -645 8 -33 16 -67 18 -75 2 -8 15 -58 30
-110 14 -52 27 -99 29 -105 27 -102 136 -424 191 -565 228 -584 522 -1112 900
-1615 62 -82 122 -161 134 -174 11 -13 21 -26 21 -29 0 -2 -46 -51 -102 -108
-57 -57 -108 -116 -115 -131 -6 -16 -22 -71 -33 -123 -44 -193 -92 -312 -157
-390 -56 -68 -184 -172 -548 -444 -517 -385 -662 -502 -815 -656 -109 -108
-160 -181 -195 -275 -31 -81 -38 -120 -37 -207 0 -91 17 -157 62 -253 114
-238 351 -399 590 -399 200 0 339 69 535 268 61 62 119 123 130 137 11 13 50
60 86 104 36 44 108 136 160 205 51 69 97 130 102 135 4 6 25 33 45 61 285
393 428 580 493 642 89 88 189 134 395 182 76 18 150 38 164 45 14 7 71 58
127 114 56 56 104 101 108 101 4 0 28 -17 54 -38 126 -105 411 -307 611 -434
268 -170 650 -369 935 -488 83 -34 159 -66 170 -71 111 -47 424 -154 584 -199
58 -16 120 -34 136 -39 29 -10 262 -68 301 -75 10 -2 66 -14 124 -25 58 -12
116 -23 130 -26 162 -27 212 -35 250 -40 25 -3 56 -8 70 -10 14 -2 52 -7 85
-10 33 -3 69 -8 80 -10 11 -2 23 -4 28 -4 4 -1 7 -68 7 -149 0 -168 -2 -162
112 -347 122 -198 150 -315 124 -518 -3 -23 -8 -70 -11 -105 -4 -35 -8 -71
-10 -80 -4 -25 -14 -90 -20 -142 -4 -25 -12 -85 -20 -135 -8 -49 -17 -108 -20
-130 -3 -23 -7 -50 -9 -60 -4 -24 -14 -94 -21 -150 -3 -22 -7 -56 -10 -75 -5
-32 -9 -65 -20 -155 -57 -450 -53 -675 14 -836 27 -64 98 -167 138 -199 62
-52 152 -101 228 -125 131 -41 327 -41 450 0 222 76 367 250 410 494 19 111
12 382 -15 611 -6 47 -13 105 -16 130 -3 25 -9 68 -14 95 -5 28 -11 68 -14 90
-3 22 -9 69 -15 105 -6 36 -13 83 -16 105 -3 22 -8 56 -11 75 -4 19 -8 44 -10
55 -1 11 -5 38 -9 60 -62 396 -71 518 -46 635 14 66 72 186 161 330 l65 105 2
95 c1 52 2 123 2 157 1 70 -3 67 101 78 30 3 87 10 125 16 39 5 84 12 100 14
66 9 213 34 255 44 25 5 61 13 80 16 175 30 565 135 785 212 55 19 116 39 135
45 19 5 55 18 80 28 25 10 92 37 150 60 58 23 124 50 147 61 24 10 45 19 47
19 14 0 375 176 496 242 160 87 205 113 208 120 2 4 8 8 13 8 13 0 225 131
369 228 142 97 125 85 325 237 l149 115 103 -102 c56 -56 113 -108 127 -115
20 -11 178 -53 255 -68 45 -9 151 -52 201 -81 53 -31 120 -89 166 -145 76 -92
198 -251 384 -499 188 -252 275 -366 331 -435 299 -364 422 -476 583 -530 85
-28 191 -37 265 -23 25 5 57 11 70 14 38 8 146 60 198 95 26 18 76 60 109 94
199 197 252 463 140 706 -59 130 -186 266 -468 500 -24 20 -101 80 -173 133
-71 54 -137 103 -145 109 -8 7 -55 42 -105 77 -49 36 -146 107 -215 158 -69
50 -136 100 -149 110 -82 58 -222 175 -256 213 -78 84 -146 240 -171 389 -8
42 -34 134 -46 158 -6 12 -56 67 -110 122 -106 107 -109 113 -65 160 74 81
315 422 444 627 125 198 311 542 395 728 15 33 40 89 57 125 104 227 221 551
311 860 42 144 95 354 104 415 4 21 9 41 11 46 3 4 8 27 11 51 3 24 10 59 14
78 5 19 12 53 15 75 3 22 10 65 15 95 16 92 19 113 25 160 3 25 8 61 10 80 3
19 7 60 11 90 3 30 8 57 10 60 3 3 72 6 154 7 166 2 153 -2 310 94 205 125
286 151 459 145 69 -3 137 -7 151 -10 13 -3 42 -8 65 -11 156 -21 197 -27 335
-49 167 -27 284 -45 335 -52 28 -4 58 -8 69 -10 10 -2 44 -6 75 -10 31 -3 64
-8 75 -10 10 -2 44 -6 75 -9 31 -3 75 -8 98 -11 129 -16 394 -22 478 -10 163
23 276 75 379 174 129 124 189 290 182 502 -6 171 -65 319 -170 425 -54 55
-155 125 -180 125 -8 0 -17 4 -20 8 -3 5 -40 17 -83 27 -108 26 -375 26 -583
0 -19 -2 -60 -7 -92 -9 -31 -3 -103 -12 -160 -20 -56 -8 -125 -18 -153 -21
-27 -3 -61 -8 -75 -10 -14 -3 -38 -7 -55 -9 -16 -2 -61 -9 -100 -15 -38 -6
-86 -13 -105 -15 -50 -7 -122 -17 -145 -21 -11 -2 -45 -6 -75 -10 -30 -4 -62
-9 -70 -10 -8 -2 -44 -6 -80 -10 -36 -3 -81 -8 -100 -11 -46 -6 -179 -6 -210
0 -68 14 -86 19 -100 26 -8 5 -44 22 -80 39 -36 17 -72 36 -80 41 -193 126
-206 130 -377 133 l-148 2 -11 95 c-19 162 -43 311 -79 505 -142 748 -439
1518 -843 2185 -134 221 -399 604 -473 684 -10 10 -31 37 -45 58 l-27 39 104
104 c57 58 110 119 117 136 7 17 24 79 38 138 63 268 107 348 269 487 62 53
320 249 485 369 52 37 97 71 100 74 3 3 59 46 125 96 421 313 641 523 714 680
121 259 32 566 -219 760 -125 97 -241 138 -385 138 -256 1 -445 -131 -770
-539 -120 -151 -156 -198 -470 -625 -240 -326 -312 -409 -409 -466 -55 -32
-173 -77 -236 -89 -51 -10 -212 -54 -225 -62 -8 -4 -59 -50 -113 -103 -54 -53
-104 -99 -111 -103 -6 -4 -52 24 -109 68 -312 242 -612 438 -950 620 -123 67
-425 216 -437 216 -2 0 -32 13 -67 29 -298 136 -757 290 -1118 375 -130 31
-380 81 -480 96 -41 6 -87 13 -101 16 -25 4 -61 9 -144 19 -22 3 -49 7 -60 10
-11 2 -39 4 -62 4 l-41 1 -4 163 -3 163 -81 135 c-167 278 -178 335 -139 674
8 64 15 116 25 175 5 30 12 75 14 100 3 25 8 56 10 70 3 14 10 61 16 105 7 44
13 87 15 95 1 8 6 42 10 75 4 32 8 66 10 75 3 14 6 39 21 155 2 22 7 51 9 65
2 14 7 57 11 95 3 39 8 78 9 87 7 36 18 219 19 325 4 285 -80 467 -274 592
-136 88 -344 121 -525 84z m-517 -5419 c1 -96 -1 -90 122 -284 77 -121 114
-190 129 -240 6 -20 9 -91 6 -165 -2 -71 -7 -247 -10 -390 -4 -143 -8 -312
-10 -375 -2 -63 -7 -248 -11 -410 -3 -162 -8 -335 -9 -385 -1 -49 -6 -209 -9
-355 -4 -146 -9 -272 -12 -280 -2 -9 -25 -22 -51 -29 -27 -8 -97 -36 -158 -63
-60 -27 -115 -51 -121 -54 -6 -3 -42 25 -80 61 -38 37 -177 171 -308 298 -132
128 -302 293 -379 367 -77 74 -170 164 -207 200 -37 36 -158 153 -269 260
-501 483 -487 467 -510 544 -22 72 -25 83 -42 186 -32 194 -36 204 -107 276
-36 36 -61 69 -56 72 284 201 592 378 896 516 176 79 522 196 738 250 153 37
387 84 431 85 l27 1 0 -86z m1442 76 c19 -5 53 -11 75 -14 22 -2 60 -9 85 -15
25 -5 60 -13 79 -16 19 -3 37 -8 41 -10 4 -2 21 -7 39 -10 29 -5 147 -37 301
-81 103 -29 376 -130 488 -180 105 -47 356 -173 420 -211 41 -24 76 -43 79
-43 5 0 368 -241 398 -265 19 -15 17 -17 -42 -78 -33 -34 -63 -71 -67 -81 -4
-11 -24 -96 -45 -190 -22 -94 -49 -196 -60 -228 -24 -62 -39 -79 -265 -292
-81 -77 -164 -156 -185 -175 -71 -69 -346 -329 -381 -361 -19 -18 -105 -99
-190 -180 -85 -81 -171 -162 -190 -180 -19 -18 -104 -98 -189 -179 -84 -80
-174 -166 -200 -190 -25 -24 -67 -63 -92 -87 l-45 -45 -95 45 c-52 24 -125 54
-164 67 -38 12 -74 25 -78 29 -5 4 -10 126 -13 271 -2 145 -6 390 -9 544 -12
721 -18 1188 -19 1380 -1 247 -12 214 150 451 82 120 102 157 102 185 0 18 0
60 1 92 1 63 5 65 71 47z m-4447 -1879 l58 -59 132 -32 c72 -17 160 -38 194
-46 140 -32 165 -47 282 -167 59 -62 123 -128 142 -148 19 -20 102 -108 185
-195 84 -87 175 -184 204 -214 66 -70 335 -352 465 -489 55 -57 116 -121 135
-142 165 -174 349 -366 369 -385 l24 -23 -32 -68 c-32 -65 -59 -133 -96 -235
l-18 -48 -71 -1 c-39 0 -161 -2 -271 -4 -110 -2 -362 -6 -560 -9 -198 -3 -529
-9 -735 -12 -206 -4 -454 -7 -550 -7 -173 -1 -176 -1 -230 27 -30 16 -95 56
-143 90 -49 34 -96 66 -105 71 -10 6 -19 12 -22 15 -3 3 -22 16 -43 28 -33 19
-53 22 -147 22 l-109 0 4 28 c3 15 17 86 31 157 14 72 28 141 30 155 10 55 78
301 110 400 120 366 251 649 475 1025 54 90 218 325 227 325 4 0 33 -27 65
-59z m7573 -141 c295 -442 502 -905 634 -1415 39 -153 45 -180 80 -370 6 -33
13 -70 15 -82 5 -23 4 -23 -90 -23 -89 0 -98 -2 -147 -32 -29 -18 -55 -34 -58
-37 -14 -16 -192 -132 -240 -157 -63 -32 -51 -32 -795 -20 -214 3 -520 8 -680
11 -799 13 -970 16 -974 21 -3 2 -15 36 -28 75 -12 39 -44 115 -70 170 l-46
100 50 52 c28 29 86 88 128 132 42 44 193 199 335 345 142 146 293 302 336
346 884 912 808 838 886 862 63 20 105 29 262 56 133 23 139 26 204 93 l63 65
33 -44 c18 -23 64 -90 102 -148z m-3923 -1747 c-2 -285 -1 -266 -12 -258 -5 3
-31 0 -58 -6 -26 -6 -56 -12 -67 -15 -24 -4 -135 -59 -162 -79 -20 -15 -28 -9
-198 161 l-177 176 43 32 c70 53 149 100 218 129 36 16 72 32 81 36 15 8 112
33 194 49 22 5 63 9 90 11 l50 2 -2 -238z m212 223 c106 -20 176 -41 253 -77
35 -16 65 -29 68 -29 7 0 164 -106 199 -135 l30 -25 -175 -175 c-165 -165
-175 -174 -195 -160 -83 61 -208 113 -284 119 -17 1 -34 5 -37 9 -4 4 -8 115
-8 247 l-1 240 35 0 c19 0 71 -7 115 -14z m-755 -466 l170 -170 -46 -56 c-68
-84 -111 -187 -127 -304 l-4 -25 -248 -3 -247 -2 6 64 c5 54 22 147 40 216 16
62 92 221 138 288 45 65 128 162 138 162 6 0 87 -77 180 -170z m1395 102 c143
-167 230 -376 251 -600 l6 -62 -248 2 -247 3 -4 30 c-14 104 -61 218 -123 295
l-29 35 172 172 c95 95 174 173 177 173 3 0 23 -21 45 -48z m-664 -202 c164
-49 300 -193 345 -365 13 -46 19 -171 11 -205 -2 -8 -7 -31 -11 -50 -12 -51
-55 -139 -90 -185 -49 -63 -96 -102 -167 -140 -341 -180 -750 56 -758 438 -4
156 42 270 150 378 137 138 331 186 520 129z m-734 -550 c2 -14 5 -37 7 -52 9
-58 41 -136 83 -202 l45 -69 -174 -174 -173 -174 -33 38 c-135 157 -229 382
-249 599 l-5 61 247 -1 248 -1 4 -25z m1648 -34 c-17 -189 -75 -353 -181 -511
-42 -62 -73 -99 -79 -94 -2 2 -81 80 -176 174 l-171 170 17 25 c51 78 77 149
101 276 3 20 8 21 249 21 l246 -1 -6 -60z m-470 -487 l170 -170 -45 -43 c-149
-143 -396 -255 -600 -272 -36 -3 -71 -7 -77 -9 -7 -3 -13 3 -14 13 -1 22 -1
442 0 463 1 12 15 19 48 24 112 17 243 78 308 144 11 11 25 20 30 20 6 0 86
-76 180 -170z m-3845 146 c159 -4 638 -17 750 -20 171 -5 699 -17 777 -19 40
-1 76 -6 81 -11 5 -6 21 -46 36 -89 16 -44 46 -117 69 -163 l41 -84 -51 -52
c-28 -29 -91 -93 -140 -143 -48 -50 -208 -215 -355 -365 -146 -151 -294 -303
-329 -339 -62 -65 -500 -516 -685 -707 -116 -118 -147 -134 -339 -169 -22 -4
-46 -8 -53 -10 -8 -1 -46 -8 -85 -14 -90 -15 -97 -19 -171 -92 l-60 -59 -19
23 c-43 54 -229 343 -289 448 -232 407 -414 888 -506 1335 -19 88 -26 127 -47
260 l-5 30 103 -1 c119 -2 113 -4 301 116 69 45 155 95 189 111 l62 30 315 -7
c173 -3 358 -8 410 -9z m7308 -14 c35 -17 107 -58 160 -92 103 -66 152 -96
192 -121 14 -9 48 -16 75 -16 28 0 69 0 92 -1 l43 -1 -6 -36 c-3 -20 -7 -46
-10 -57 -2 -12 -6 -39 -9 -62 -4 -22 -10 -56 -15 -75 -5 -19 -12 -48 -14 -65
-35 -196 -156 -586 -250 -810 -68 -159 -189 -405 -253 -513 -23 -41 -43 -76
-43 -78 0 -3 -8 -17 -19 -32 -10 -15 -58 -87 -106 -161 -48 -73 -95 -143 -106
-155 -10 -11 -25 -30 -33 -41 -14 -19 -16 -17 -75 41 -50 49 -73 64 -119 78
-49 14 -195 47 -272 62 -38 7 -90 24 -136 45 -45 20 -70 43 -251 235 -67 71
-150 159 -185 195 -35 36 -130 137 -213 224 -82 87 -172 181 -199 209 -26 28
-85 89 -129 136 -44 47 -128 135 -186 196 -58 61 -146 153 -195 205 -49 52
-133 139 -185 194 -136 141 -127 119 -82 212 22 44 52 116 67 159 15 44 31 83
35 88 5 5 59 10 121 12 62 1 217 5 343 8 127 3 327 8 445 11 118 3 278 8 355
10 77 2 271 7 430 11 160 3 291 7 292 8 1 0 86 2 190 4 l188 3 63 -30z m-4419
-9 c84 -65 151 -95 260 -116 l65 -12 -1 -219 c-2 -288 -1 -275 -15 -270 -7 2
-42 6 -78 9 -89 8 -105 12 -211 46 -120 40 -230 99 -331 178 l-81 64 174 174
c96 96 175 174 177 174 2 0 21 -13 41 -28z m-186 -1152 c64 -21 67 -23 68 -53
2 -70 8 -411 13 -737 3 -190 8 -534 12 -765 4 -231 7 -519 8 -640 1 -262 8
-240 -150 -472 l-104 -151 0 -97 c0 -53 -3 -94 -8 -91 -4 2 -28 7 -52 11 -54
8 -242 45 -305 60 -11 3 -38 9 -60 14 -198 45 -701 217 -740 252 -5 5 -15 9
-23 9 -21 0 -357 171 -484 247 -179 106 -418 267 -418 282 0 3 25 31 56 61 31
30 60 66 65 79 5 13 27 100 48 195 22 94 49 197 61 229 26 69 8 50 523 537 50
47 116 110 148 140 31 30 93 89 136 130 44 41 151 143 239 226 87 84 179 171
204 194 25 23 109 103 187 177 79 74 177 167 219 207 l77 72 106 -47 c58 -26
136 -57 174 -69z m1490 0 c54 -52 139 -135 190 -184 51 -48 200 -192 331 -320
132 -127 265 -256 297 -286 809 -781 773 -745 797 -820 18 -56 34 -129 56
-264 20 -117 28 -135 93 -200 34 -35 63 -66 63 -69 0 -9 -340 -232 -445 -292
-295 -169 -602 -304 -920 -403 -182 -57 -195 -61 -225 -67 -12 -2 -30 -7 -40
-10 -37 -12 -346 -74 -418 -84 l-52 -8 2 87 c3 97 6 90 -124 293 -38 60 -84
136 -101 170 -31 61 -32 65 -31 192 0 72 4 252 8 400 4 149 9 344 11 435 3 91
7 246 10 345 3 99 8 288 11 420 3 132 7 287 9 345 2 58 4 148 4 201 l1 96 81
27 c45 15 122 47 173 71 72 34 94 40 106 32 8 -7 59 -55 113 -107z"/>
</g>
</svg>
